<svg id="Layer_1" data-name="Layer 1" xmlns="http://www.w3.org/2000/svg" viewBox="0 0 362.6 297.87"><defs><style>.cls-1{fill:#e57c0f;}.cls-2{fill:#d97003;}.cls-3{fill:#97ae00;}.cls-10,.cls-3,.cls-4,.cls-5,.cls-6,.cls-7,.cls-8,.cls-9{fill-rule:evenodd;}.cls-4{fill:#fcc900;}.cls-5{fill:#95432b;}.cls-6{fill:#89371f;}.cls-7{fill:#dd2a1b;}.cls-8{fill:#cf2314;}.cls-9{fill:#ffd9a8;}.cls-10{fill:#e9c18f;}</style></defs><title>burger-bullet</title><path class="cls-1" d="M420.08,322.34c0-1.33,0-2.75-.1-4.48s-.21-3.16-.31-4.48A4.75,4.75,0,0,0,415,309h0c-109.45-6-218.8-6.62-328.14,0a4.81,4.81,0,0,0-4.79,4.58c0,1.22-.1,2.65-.2,4.28h0c-.1,1.73-.1,3.15-.1,4.48,0,103,338.32,101.3,338.32,0Z" transform="translate(-68.68 -101.1)"/><path class="cls-2" d="M420.08,322.34c0-1.33,0-2.75-.1-4.48s-.21-3.16-.31-4.48A4.75,4.75,0,0,0,415,309h0c-109.45-6-218.8-6.62-328.14,0a4.81,4.81,0,0,0-4.79,4.58c0,1.22-.1,2.65-.2,4.28h0c-.1,1.73-.1,3.15-.1,4.48,0,14.25,6.51,26.47,17.61,36.65,33.19-15.58,17.31,12.52,38.28,12.52,9.16,0,20.06,1.43,27.79,6.72,15.68,10.9,9.07-4.17,24.44-1.73,25.66,4,3.05-15.47,37.06-9.47,6,1,14.86,19.14,23.62,11.61,11.61-10.08,21.58,12.52,41.74-7.23,32.07-31.26,23.11-3.46,35.23-2.75,24.54,1.33,14.46.51,29.12-9.16,16.7-11.1,29.93-3.26,37,6.11,16.49-11.51,26.47-26,26.47-43.27Z" transform="translate(-68.68 -101.1)"/><path class="cls-3" d="M82,310.73c0,8.76-21.28,26-.61,24.95.1,0,10.18-11.41,18.12-5.1,4.58,3.67-7.74,19,12.12,8.76,8.55-4.38,27.08-5.5,30,9.67,2.65,14.05,23.62,22.3,32,7.43,11.1-19.85,26.37-.71,30.75-6.51,2.95-3.87,8.55-26.17,21.17-16.29,4.48,3.36.61,25.76,21.79,19.85,13.14-3.76.31-7,11.81,5.7,17.92,19.86,33.4-34.41,55.69-25.14,10.18,4.27,3.47,29.42,17,5.09,4.48-8.05,16.9-9.27,23.31-2.85,16.29,16.29,20.87-15.17,31.56,2.85,3.06,5.39,6.62-7.84,18.74,4.78,4.17,4.38,5.19-7,18.32,1.83,5.4,3.67,6.21-13.23.72-20.15-13.65-16.91,3.56-24-38.69-24-20.77,0-29.94-12.93-66.59-12.93-23.52,0-48.36-1.12-71.47,4.17-7,1.53-50.6,0-65,1.53-22.09,2.34-34.31-3.26-55.38,5-8.56,3.26-29.53,1.73-36.35,2.24Z" transform="translate(-68.68 -101.1)"/><path class="cls-4" d="M84.1,301.87C82.57,307.78,92.34,317,102.63,317c28.3,0,17.1,19.86,53.75,15.48,29-3.46,16.9,13.23,43.27,12.62,2.24-.1,15.68,18.64,26.17,5.5,7.33-9.26,23.72-20.77,35.84-15.07,12.52,5.91,28.61-14.56,45.71,1.73,7.84,7.44,33.5,6.32,36.14-1.32,19.25-6.21,19-5,37.27-5.9,6.82-.41-.92-10.19,22.4-8.86,31.66,1.73,30-24.54-4.79-18.12-15.78,2.85-67.19-.51-87.05-.51-31.76,0-63.43,1.42-94.68-2.55-30.55-3.77-69.85,6.31-101-5.6-3-1.12-17.92-1-21.89-.71l.61-.31Z" transform="translate(-68.68 -101.1)"/><path class="cls-5" d="M87.46,273.88c-.61,1.12-33.91,21.07-10.39,34,10.49,5.7,34.92-.81,49.38,4.48,16.29,5.91,83.59,16.8,97.74,11.2,15.48-6.11,74.53-6.82,91.33-2.65,20.15,5,39.8-9.06,62.41-9.06,12.93,0,52.84,7.74,53.24-4.68.62-19.55-.71-38.49-26.36-46.23C356.24,246.28,293,258.09,242,257.59c-31.16-.21-43.27-6.72-76.26-1-11.4,1.93-22.3,4.48-34.31,4.48-14.86,6.41-29.22,6.41-44,12.83Z" transform="translate(-68.68 -101.1)"/><path class="cls-6" d="M119.32,310.63a37,37,0,0,1,7.13,1.73c8.86,3.26,33.09,7.94,55.59,10.69.71-.41,1.53-.81,2.34-1.32,9.06-5.09,36.86-9.37,44.7-.72l.91.92c9.68-2.14,25.25-3.26,40.73-3.56,5-2.85,9.16-6.11,11.5-9.37,14.87-20.26,10.8,10.69,27.19,3.05,7.33-3.46,21.38-12,23-10,14.35,17.71,15.27,8,30.34,8.55,17.51.51,15-24.44,24.53-15.58,12.22,11.2,6.11-5.19,16.9-8.45,11.71-3.46,6.83,6,25.87,6a2,2,0,0,0,.81-.1c-1.32-13.85-6.92-25.86-26.06-31.57C356.24,246.28,293,258.09,242,257.59c-31.16-.21-43.27-6.72-76.26-1-11.4,1.93-22.3,4.48-34.31,4.48-13.34,5.8-26.37,6.31-39.71,11.09-.91,13.95,2.75,27.8,10.08,28.72,6.62.91,11.91,5.59,17.51,9.77Z" transform="translate(-68.68 -101.1)"/><path class="cls-3" d="M96.52,236.51c1.83,3.56-36.45,44.59-20.47,44.59,13,0,28.61-14.56,34.93-4.37,5.29,8.45,3.25,26,18.73,14,27.28-21,19.75,17,49.89,17.2,10.38,0,11.6-34.72,32.48-9.26,11.7,14.35,15.37-25.05,30.95-7.33,17.71,20.26,30.34,35.63,42.15,7,3.36-8.24,8.85-16.19,19.24-12.93,4.38,1.43,7.74,15.88,19.34-2.75,4.58-7.23,14.36-8.45,19.65,1,18.13,32.58,20.57-6.52,21.69-8,10.18-12.63,11.1,16.19,22-9.27,5.29-12.32,14.56,11.61,21,2.55,4.48-6.42,16,6.21,19.25.91,8.14-12.82-28.51-24.74-38.79-39.91a11.13,11.13,0,0,0-1.43-1.63Z" transform="translate(-68.68 -101.1)"/><path class="cls-7" d="M87.15,242.82c0,23.32,5.19,14.66,29.53,23.62,39.81,14.46,133.78,16.7,174.5,9.67,13.85-2.34,96.32-15.27,113.52-18.42,10.39-1.84,11.3-3.16,10-16-1.12-11.81-32.27-7.23-40.42-1.63-11.5,7.74-80.23-7-105.37-7-28.92,0-81.35,2.34-108.54-2.24Z" transform="translate(-68.68 -101.1)"/><path class="cls-8" d="M87.15,242.82c0,5.91.31,9.78,1.22,12.42,70,20.57,265.33,1.12,326.51-5.7a41.47,41.47,0,0,0-.2-7.84c-1.12-11.81-32.27-7.23-40.42-1.63-11.5,7.74-80.23-7-105.37-7-28.92,0-81.35,2.34-108.54-2.24Z" transform="translate(-68.68 -101.1)"/><path class="cls-2" d="M250.87,101.1c46.52,0,88.67,15,119.22,39.2,30.85,24.43,50,58.34,50,95.9,0,1.23,0,2.75-.1,4.38s-.21,3.16-.31,4.48a4.75,4.75,0,0,1-4.68,4.38h0c-109.45,6-218.8,6.62-328.14,0a4.81,4.81,0,0,1-4.79-4.58c0-1.22-.1-2.65-.2-4.18v-.1c-.1-1.73-.1-3.15-.1-4.38,0-37.56,19-71.47,50-95.9,30.54-24.23,72.69-39.2,119.12-39.2Z" transform="translate(-68.68 -101.1)"/><path class="cls-1" d="M250.87,101.1c46.52,0,88.67,15,119.22,39.2,25.65,20.26,43.06,47,48.36,77-56.3-15.68-67-4.58-145.69,9.77-26.27,4.68-132.46,5-132.46-34-.1-45.92,50.5-73.31,95.8-91.43,4.89-.41,9.78-.51,14.77-.51Z" transform="translate(-68.68 -101.1)"/><path class="cls-9" d="M181.63,152.41a3.3,3.3,0,0,1,3.36,3.26,3.39,3.39,0,0,1-3.36,3.36,3.3,3.3,0,0,1-3.25-3.36,3.21,3.21,0,0,1,3.25-3.26Zm40.22,1.22a8.54,8.54,0,0,1,8.55,8.56,8.5,8.5,0,1,1-8.55-8.56Zm38.48-26.77a4.69,4.69,0,0,1,4.79,4.68,4.74,4.74,0,1,1-9.47,0,4.67,4.67,0,0,1,4.68-4.68Zm49,11a3.82,3.82,0,0,1,0,7.64,3.82,3.82,0,0,1,0-7.64Zm-18,37.57a6.93,6.93,0,1,1-6.92,6.93,6.88,6.88,0,0,1,6.92-6.93Zm42.26-12a2.85,2.85,0,1,1-2.75,2.85,2.84,2.84,0,0,1,2.75-2.85Zm54.67,22.4a6,6,0,0,1,5.91,6,6,6,0,1,1-11.92,0,6,6,0,0,1,6-6ZM233.86,198.74a3.82,3.82,0,0,1,0,7.63,3.82,3.82,0,0,1,0-7.63ZM185.6,195a4.13,4.13,0,1,1-4.07,4.07A4.09,4.09,0,0,1,185.6,195Zm174.51-45.1A3.16,3.16,0,1,1,357,153a3.17,3.17,0,0,1,3.16-3.15ZM274,206.07a2.08,2.08,0,0,1,2.13,2.14,2.17,2.17,0,0,1-2.13,2.24,2.26,2.26,0,0,1-2.24-2.24,2.17,2.17,0,0,1,2.24-2.14Zm-14.36-44.19a3,3,0,0,1,2.95,3,3,3,0,1,1-6,0,3,3,0,0,1,3.05-3Zm70.66,29.93a4,4,0,0,1,4,4,4,4,0,0,1-4,4,4,4,0,0,1-4-4,3.92,3.92,0,0,1,4-4Zm-113-68.11a3,3,0,0,1,3,3,3,3,0,1,1-6,0,3,3,0,0,1,3-3Z" transform="translate(-68.68 -101.1)"/><path class="cls-10" d="M275,236.31a2.7,2.7,0,1,1-2.64,2.64,2.71,2.71,0,0,1,2.64-2.64Zm74.33-11a4.08,4.08,0,1,1-4.07,4.07,4.1,4.1,0,0,1,4.07-4.07ZM117.39,168.5a4.07,4.07,0,1,1-4.07,4.07,4.1,4.1,0,0,1,4.07-4.07ZM97.13,217.67a4.59,4.59,0,1,1-4.58,4.59,4.55,4.55,0,0,1,4.58-4.59Zm32.27,2.24a5.71,5.71,0,1,1-5.7,5.71,5.69,5.69,0,0,1,5.7-5.71Z" transform="translate(-68.68 -101.1)"/></svg>